<svg xmlns="http://www.w3.org/2000/svg" viewBox="0 0 24 24" id="Ticket">
  <g fill="#000000" class="color000000 svgShape">
    <path fill="#7a1cac" d="M21.2,9.11a1,1,0,0,0,.8-1V7a3,3,0,0,0-3-3H5A3,3,0,0,0,2,7V8.13a1,1,0,0,0,.8,1,3,3,0,0,1,0,5.78,1,1,0,0,0-.8,1V17a3,3,0,0,0,3,3H19a3,3,0,0,0,3-3V15.87a1,1,0,0,0-.8-1,3,3,0,0,1,0-5.78ZM12,17a1,1,0,1,1,1-1A1,1,0,0,1,12,17Zm0-4a1,1,0,1,1,1-1A1,1,0,0,1,12,13Zm0-4a1,1,0,1,1,1-1A1,1,0,0,1,12,9Z" class="color0554f1 svgShape"></path>
    <path fill="#7a1cac" d="M19,21H5a4,4,0,0,1-4-4V15.87a2,2,0,0,1,1.53-1.94,2,2,0,0,0,0-3.86A2,2,0,0,1,1,8.13V7A4,4,0,0,1,5,3H19a4,4,0,0,1,4,4V8.13a2,2,0,0,1-1.53,1.94,2,2,0,0,0,0,3.86A2,2,0,0,1,23,15.87V17A4,4,0,0,1,19,21ZM5,5A2,2,0,0,0,3,7V8.13a4,4,0,0,1,.06,7.73L3,17a2,2,0,0,0,2,2H19a2,2,0,0,0,2-2V15.87a4,4,0,0,1-.06-7.73L21,7a2,2,0,0,0-2-2Z" class="color0554f1 svgShape"></path>
    <circle cx="12" cy="16" r="1" fill="#cc6cff" class="color6ca4ff svgShape"></circle>
  </g>
</svg>
